<?xml version="1.0" standalone="no"?><!DOCTYPE svg PUBLIC "-//W3C//DTD SVG 1.1//EN" "http://www.w3.org/Graphics/SVG/1.1/DTD/svg11.dtd"><svg t="1655645804571" class="icon" viewBox="0 0 1024 1024" version="1.1" xmlns="http://www.w3.org/2000/svg" p-id="2811" xmlns:xlink="http://www.w3.org/1999/xlink" width="200" height="200"><defs><style type="text/css">@font-face { font-family: feedback-iconfont; src: url("//at.alicdn.com/t/font_1031158_u69w8yhxdu.woff2?t=1630033759944") format("woff2"), url("//at.alicdn.com/t/font_1031158_u69w8yhxdu.woff?t=1630033759944") format("woff"), url("//at.alicdn.com/t/font_1031158_u69w8yhxdu.ttf?t=1630033759944") format("truetype"); }
</style></defs><path d="M832 74.666667H192c-17.066667 0-32 14.933333-32 32v765.866666c0 12.8 4.266667 23.466667 12.8 34.133334 8.533333 10.666667 21.333333 17.066667 36.266667 19.2h6.4c12.8 0 23.466667-4.266667 34.133333-12.8l264.533333-213.333334 264.533334 213.333334c8.533333 8.533333 21.333333 12.8 34.133333 12.8 29.866667 0 53.333333-23.466667 53.333333-53.333334V106.666667c-2.133333-17.066667-17.066667-32-34.133333-32z m-32 776.533333L531.2 633.6c-10.666667-8.533333-27.733333-8.533333-40.533333 0L224 851.2V138.666667h576v712.533333z" p-id="2812"></path><path d="M341.333333 341.333333h320c17.066667 0 32-14.933333 32-32S678.4 277.333333 661.333333 277.333333H341.333333c-17.066667 0-32 14.933333-32 32S324.266667 341.333333 341.333333 341.333333zM341.333333 512h213.333334c17.066667 0 32-14.933333 32-32S571.733333 448 554.666667 448H341.333333c-17.066667 0-32 14.933333-32 32S324.266667 512 341.333333 512z" p-id="2813"></path></svg>