<?xml version="1.0" standalone="no"?><!DOCTYPE svg PUBLIC "-//W3C//DTD SVG 1.1//EN" "http://www.w3.org/Graphics/SVG/1.1/DTD/svg11.dtd"><svg t="1655015501953" class="icon" viewBox="0 0 1024 1024" version="1.1" xmlns="http://www.w3.org/2000/svg" p-id="14542" xmlns:xlink="http://www.w3.org/1999/xlink" width="200" height="200"><defs><style type="text/css">@font-face { font-family: feedback-iconfont; src: url("//at.alicdn.com/t/font_1031158_u69w8yhxdu.woff2?t=1630033759944") format("woff2"), url("//at.alicdn.com/t/font_1031158_u69w8yhxdu.woff?t=1630033759944") format("woff"), url("//at.alicdn.com/t/font_1031158_u69w8yhxdu.ttf?t=1630033759944") format("truetype"); }
</style></defs><path d="M874.666667 480H224L514.133333 170.666667c12.8-12.8 10.666667-34.133333-2.133333-44.8s-32-10.666667-44.8 2.133333l-341.333333 362.666667c-2.133333 2.133333-4.266667 6.4-6.4 8.533333-2.133333 4.266667-2.133333 6.4-2.133334 10.666667s0 8.533333 2.133334 10.666666c2.133333 4.266667 4.266667 6.4 6.4 8.533334l341.333333 362.666666c6.4 6.4 14.933333 10.666667 23.466667 10.666667 8.533333 0 14.933333-2.133333 21.333333-8.533333 12.8-12.8 12.8-32 2.133333-44.8L224 544H874.666667c17.066667 0 32-14.933333 32-32s-14.933333-32-32-32z" p-id="14543"></path></svg>