<?xml version="1.0" standalone="no"?><!DOCTYPE svg PUBLIC "-//W3C//DTD SVG 1.1//EN" "http://www.w3.org/Graphics/SVG/1.1/DTD/svg11.dtd"><svg t="1655012720972" class="icon" viewBox="0 0 1024 1024" version="1.1" xmlns="http://www.w3.org/2000/svg" p-id="9817" xmlns:xlink="http://www.w3.org/1999/xlink" width="200" height="200"><defs><style type="text/css">@font-face { font-family: feedback-iconfont; src: url("//at.alicdn.com/t/font_1031158_u69w8yhxdu.woff2?t=1630033759944") format("woff2"), url("//at.alicdn.com/t/font_1031158_u69w8yhxdu.woff?t=1630033759944") format("woff"), url("//at.alicdn.com/t/font_1031158_u69w8yhxdu.ttf?t=1630033759944") format("truetype"); }
</style></defs><path d="M405.76 478.72 121.6 325.12C115.84 321.92 109.44 320.64 103.68 320.64 83.2 320.64 64 338.56 64 363.52l0 300.16c0 31.36 16 59.52 42.24 73.6l284.16 153.6C396.16 894.08 402.56 896 408.32 896 428.8 896 448 877.44 448 852.48L448 552.32C448 521.6 432 492.8 405.76 478.72zM384 814.72l-247.68-133.76C132.48 678.4 128 672.64 128 663.68l0-262.4 247.68 133.76C380.8 538.24 384 545.28 384 552.32L384 814.72zM856.32 320.64c-5.76 0-12.16 1.28-17.92 4.48L554.24 479.36C528 493.44 512 522.24 512 553.6l0 298.88C512 877.44 531.2 896 551.68 896c5.76 0 12.16-1.28 17.92-4.48l284.16-154.24c25.6-14.08 42.24-42.24 42.24-73.6L896 363.52C896 338.56 876.8 320.64 856.32 320.64zM832 663.04c0 8.96-4.48 15.36-8.32 17.28L576 814.72 576 553.6c0-8.96 4.48-15.36 8.32-17.28L832 401.28 832 663.04zM812.16 254.72c13.44-7.04 19.84-19.2 18.56-30.72 1.28-12.16-5.12-23.68-18.56-30.72L522.88 42.24C510.08 35.2 495.36 32 480 32c0 0 0 0 0 0 0 0 0 0 0 0-15.36 0-30.08 3.2-43.52 10.24L146.56 192.64C133.12 199.68 127.36 211.84 128 224 127.36 235.52 133.12 247.68 146.56 254.72l289.28 150.4c12.8 7.04 28.16 10.24 43.52 10.24 0 0 0 0 0.64 0 0 0 0 0 0.64 0 15.36 0 30.08-3.2 43.52-10.24L812.16 254.72zM479.36 351.36c-5.12 0-10.24-1.28-14.08-3.2L225.92 224l239.36-124.8C469.12 97.28 474.24 96 480 96c5.12 0 10.24 1.28 14.08 3.2l239.36 124.8L493.44 348.16C490.24 350.08 485.12 351.36 479.36 351.36z" p-id="9818"></path></svg>