<?xml version="1.0" standalone="no"?><!DOCTYPE svg PUBLIC "-//W3C//DTD SVG 1.1//EN" "http://www.w3.org/Graphics/SVG/1.1/DTD/svg11.dtd"><svg t="1655015434187" class="icon" viewBox="0 0 1024 1024" version="1.1" xmlns="http://www.w3.org/2000/svg" p-id="13968" xmlns:xlink="http://www.w3.org/1999/xlink" width="200" height="200"><defs><style type="text/css">@font-face { font-family: feedback-iconfont; src: url("//at.alicdn.com/t/font_1031158_u69w8yhxdu.woff2?t=1630033759944") format("woff2"), url("//at.alicdn.com/t/font_1031158_u69w8yhxdu.woff?t=1630033759944") format("woff"), url("//at.alicdn.com/t/font_1031158_u69w8yhxdu.ttf?t=1630033759944") format("truetype"); }
</style></defs><path d="M904.533333 522.666667c2.133333-4.266667 2.133333-6.4 2.133334-10.666667s0-8.533333-2.133334-10.666667c-2.133333-4.266667-4.266667-6.4-6.4-8.533333l-341.333333-362.666667c-12.8-12.8-32-12.8-44.8-2.133333-12.8 12.8-12.8 32-2.133333 44.8l290.133333 309.333333H149.333333c-17.066667 0-32 14.933333-32 32s14.933333 32 32 32h650.666667L509.866667 853.333333c-12.8 12.8-10.666667 34.133333 2.133333 44.8 6.4 6.4 14.933333 8.533333 21.333333 8.533334 8.533333 0 17.066667-4.266667 23.466667-10.666667l341.333333-362.666667c2.133333-2.133333 4.266667-6.4 6.4-10.666666z" p-id="13969"></path></svg>