<?xml version="1.0" standalone="no"?><!DOCTYPE svg PUBLIC "-//W3C//DTD SVG 1.1//EN" "http://www.w3.org/Graphics/SVG/1.1/DTD/svg11.dtd"><svg t="1655021801105" class="icon" viewBox="0 0 1024 1024" version="1.1" xmlns="http://www.w3.org/2000/svg" p-id="2163" xmlns:xlink="http://www.w3.org/1999/xlink" width="200" height="200"><defs><style type="text/css">@font-face { font-family: feedback-iconfont; src: url("//at.alicdn.com/t/font_1031158_u69w8yhxdu.woff2?t=1630033759944") format("woff2"), url("//at.alicdn.com/t/font_1031158_u69w8yhxdu.woff?t=1630033759944") format("woff"), url("//at.alicdn.com/t/font_1031158_u69w8yhxdu.ttf?t=1630033759944") format("truetype"); }
</style></defs><path d="M794.432 983.552H51.2a25.6 25.6 0 0 1-25.6-25.6V214.784a25.6 25.6 0 0 1 25.6-25.6h152.768V66.112a25.6 25.6 0 0 1 25.6-25.6H972.8a25.6 25.6 0 0 1 25.6 25.6v743.232a25.6 25.6 0 0 1-25.6 25.6h-152.768v123.008a25.6 25.6 0 0 1-25.6 25.6z m-717.632-51.2h692.032V240.384H76.8v691.968z m743.232-148.672H947.2V91.648H255.168v97.472h539.264a25.6 25.6 0 0 1 25.6 25.6v568.96z" p-id="2164"></path></svg>