<?xml version="1.0" standalone="no"?><!DOCTYPE svg PUBLIC "-//W3C//DTD SVG 1.1//EN" "http://www.w3.org/Graphics/SVG/1.1/DTD/svg11.dtd"><svg t="1655020744027" class="icon" viewBox="0 0 1024 1024" version="1.1" xmlns="http://www.w3.org/2000/svg" p-id="1846" xmlns:xlink="http://www.w3.org/1999/xlink" width="200" height="200"><defs><style type="text/css">@font-face { font-family: feedback-iconfont; src: url("//at.alicdn.com/t/font_1031158_u69w8yhxdu.woff2?t=1630033759944") format("woff2"), url("//at.alicdn.com/t/font_1031158_u69w8yhxdu.woff?t=1630033759944") format("woff"), url("//at.alicdn.com/t/font_1031158_u69w8yhxdu.ttf?t=1630033759944") format("truetype"); }
</style></defs><path d="M208 176l64 80H224v544h544v-48l80 64-80 64V832H208a16 16 0 0 1-16-16V256H144l64-80z" fill="#000000" p-id="1847"></path><path d="M352 246.4l38.4 48h-30.432v146.592a32 32 0 0 1 23.808 27.264l0.224 3.744a32 32 0 1 1-40-30.976L343.936 294.4H313.6L352 246.4z m0 209.6a16 16 0 1 0 0 32 16 16 0 0 0 0-32zM777.6 663.2l-48 38.4v-30.432h-146.592a32 32 0 0 1-27.264 23.808l-3.744 0.224a32 32 0 1 1 30.976-40l146.624-0.032v-30.368l48 38.4z m-209.6 0a16 16 0 1 0-32 0 16 16 0 0 0 32 0zM665.28 358.688l-6.752 61.088-21.536-21.536-103.648 103.68a32 32 0 0 1-2.464 36.128l-2.464 2.784a32 32 0 1 1-6.4-50.24l103.68-103.68-21.472-21.44 61.088-6.784z m-148.16 148.192a16 16 0 1 0-22.656 22.624 16 16 0 0 0 22.624-22.624z" fill="#000000" p-id="1848"></path></svg>