<?xml version="1.0" standalone="no"?><!DOCTYPE svg PUBLIC "-//W3C//DTD SVG 1.1//EN" "http://www.w3.org/Graphics/SVG/1.1/DTD/svg11.dtd"><svg t="1655025708125" class="icon" viewBox="0 0 1024 1024" version="1.1" xmlns="http://www.w3.org/2000/svg" p-id="5255" xmlns:xlink="http://www.w3.org/1999/xlink" width="200" height="200"><defs><style type="text/css">@font-face { font-family: feedback-iconfont; src: url("//at.alicdn.com/t/font_1031158_u69w8yhxdu.woff2?t=1630033759944") format("woff2"), url("//at.alicdn.com/t/font_1031158_u69w8yhxdu.woff?t=1630033759944") format("woff"), url("//at.alicdn.com/t/font_1031158_u69w8yhxdu.ttf?t=1630033759944") format("truetype"); }
</style></defs><path d="M421.888 861.184H108.544c-8.192 0-14.848-6.656-14.848-15.36V130.56c0-8.704 6.656-15.36 14.848-15.36h622.592c8.192 0 14.848 6.656 14.848 15.36v211.968c0 26.112 20.992 47.104 47.104 47.104s47.104-20.992 47.104-47.104V130.56c0-60.416-48.64-109.568-108.544-109.568H108.544C48.64 20.992 0 70.144 0 130.56v715.264c0 60.416 48.64 109.568 108.544 109.568h313.344c26.112 0 47.104-20.992 47.104-47.104s-20.992-47.104-47.104-47.104z" p-id="5256"></path><path d="M589.312 296.448c0-26.112-20.992-47.104-47.104-47.104H186.368c-26.112 0-47.104 20.992-47.104 47.104s20.992 47.104 47.104 47.104h355.328c26.112 0 47.616-20.992 47.616-47.104zM186.368 451.584c-26.112 0-47.104 20.992-47.104 47.104s20.992 47.104 47.104 47.104h198.656c26.112 0 47.104-20.992 47.104-47.104s-20.992-47.104-47.104-47.104H186.368zM754.688 463.872c-148.48 0-269.312 120.832-269.312 269.312s120.832 269.312 269.312 269.312 269.312-120.832 269.312-269.312-120.832-269.312-269.312-269.312z m0 452.096c-100.352 0-182.272-81.92-182.272-182.272s81.92-182.272 182.272-182.272 182.272 81.92 182.272 182.272-81.92 182.272-182.272 182.272z" p-id="5257"></path><path d="M828.928 772.608l-48.64-40.448v-91.136c0-19.968-15.872-35.84-35.84-35.84s-35.84 15.872-35.84 35.84v108.032c0 10.752 4.608 20.992 12.8 27.648l61.44 51.2c6.656 5.632 14.848 8.192 23.04 8.192 10.24 0 20.48-4.608 27.648-12.8a35.84 35.84 0 0 0-4.608-50.688z" p-id="5258"></path></svg>