<?xml version="1.0" standalone="no"?><!DOCTYPE svg PUBLIC "-//W3C//DTD SVG 1.1//EN" "http://www.w3.org/Graphics/SVG/1.1/DTD/svg11.dtd"><svg t="1655119127453" class="icon" viewBox="0 0 1024 1024" version="1.1" xmlns="http://www.w3.org/2000/svg" p-id="8726" xmlns:xlink="http://www.w3.org/1999/xlink" width="200" height="200"><defs><style type="text/css">@font-face { font-family: feedback-iconfont; src: url("//at.alicdn.com/t/font_1031158_u69w8yhxdu.woff2?t=1630033759944") format("woff2"), url("//at.alicdn.com/t/font_1031158_u69w8yhxdu.woff?t=1630033759944") format("woff"), url("//at.alicdn.com/t/font_1031158_u69w8yhxdu.ttf?t=1630033759944") format("truetype"); }
</style></defs><path d="M885.333333 256H725.333333V198.4C723.2 157.866667 689.066667 128 648.533333 128h-298.666666c-40.533333 2.133333-72.533333 34.133333-72.533334 74.666667V256H138.666667C98.133333 256 64 290.133333 64 330.666667v490.666666C64 861.866667 98.133333 896 138.666667 896h746.666666c40.533333 0 74.666667-34.133333 74.666667-74.666667v-490.666666c0-40.533333-34.133333-74.666667-74.666667-74.666667zM341.333333 202.666667c2.133333-6.4 6.4-10.666667 12.8-10.666667h296.533334c6.4 0 10.666667 6.4 10.666666 10.666667V256H341.333333V202.666667zM138.666667 320h746.666666c6.4 0 10.666667 4.266667 10.666667 10.666667v128H128v-128c0-6.4 4.266667-10.666667 10.666667-10.666667z m277.333333 202.666667h192V576c0 6.4-4.266667 10.666667-10.666667 10.666667h-170.666666c-6.4 0-10.666667-4.266667-10.666667-10.666667v-53.333333z m469.333333 309.333333h-746.666666c-6.4 0-10.666667-4.266667-10.666667-10.666667v-298.666666h224V576c0 40.533333 34.133333 74.666667 74.666667 74.666667h170.666666c40.533333 0 74.666667-34.133333 74.666667-74.666667v-53.333333H896v298.666666c0 6.4-4.266667 10.666667-10.666667 10.666667z" p-id="8727"></path></svg>