<?xml version="1.0" standalone="no"?><!DOCTYPE svg PUBLIC "-//W3C//DTD SVG 1.1//EN" "http://www.w3.org/Graphics/SVG/1.1/DTD/svg11.dtd"><svg t="1655106964945" class="icon" viewBox="0 0 1024 1024" version="1.1" xmlns="http://www.w3.org/2000/svg" p-id="8165" xmlns:xlink="http://www.w3.org/1999/xlink" width="200" height="200"><defs><style type="text/css">@font-face { font-family: feedback-iconfont; src: url("//at.alicdn.com/t/font_1031158_u69w8yhxdu.woff2?t=1630033759944") format("woff2"), url("//at.alicdn.com/t/font_1031158_u69w8yhxdu.woff?t=1630033759944") format("woff"), url("//at.alicdn.com/t/font_1031158_u69w8yhxdu.ttf?t=1630033759944") format("truetype"); }
</style></defs><path d="M840.533333 117.333333H183.466667c-59.733333 0-108.8 49.066667-108.8 108.8v379.733334c0 59.733333 49.066667 108.8 108.8 108.8h232.533333v115.2H341.333333c-17.066667 0-32 14.933333-32 32s14.933333 32 32 32h341.333334c17.066667 0 32-14.933333 32-32s-14.933333-32-32-32h-74.666667v-115.2h232.533333c59.733333 0 108.8-49.066667 108.8-108.8V226.133333c0-59.733333-49.066667-108.8-108.8-108.8zM544 829.866667h-64v-115.2h64v115.2z m341.333333-224c0 25.6-19.2 44.8-44.8 44.8H183.466667c-25.6 0-44.8-19.2-44.8-44.8V226.133333c0-25.6 19.2-44.8 44.8-44.8h657.066666c25.6 0 44.8 19.2 44.8 44.8v379.733334z" p-id="8166"></path></svg>