<?xml version="1.0" standalone="no"?><!DOCTYPE svg PUBLIC "-//W3C//DTD SVG 1.1//EN" "http://www.w3.org/Graphics/SVG/1.1/DTD/svg11.dtd"><svg t="1655014567614" class="icon" viewBox="0 0 1024 1024" version="1.1" xmlns="http://www.w3.org/2000/svg" p-id="9076" xmlns:xlink="http://www.w3.org/1999/xlink" width="200" height="200"><defs><style type="text/css">@font-face { font-family: feedback-iconfont; src: url("//at.alicdn.com/t/font_1031158_u69w8yhxdu.woff2?t=1630033759944") format("woff2"), url("//at.alicdn.com/t/font_1031158_u69w8yhxdu.woff?t=1630033759944") format("woff"), url("//at.alicdn.com/t/font_1031158_u69w8yhxdu.ttf?t=1630033759944") format("truetype"); }
</style></defs><path d="M914.341996 163.648151c-23.342638-15.326057-56.100716-28.924773-97.316419-40.36636-81.97399-22.76754-190.548824-35.288714-305.738309-35.288714-115.192555 0-223.768413 12.56927-305.741379 35.288714-41.260729 11.44261-73.996295 25.040303-97.337909 40.36636-29.132504 19.159362-43.904952 41.122583-43.904952 65.448618l0 564.611242c0 24.353664 14.772448 46.315862 43.904952 65.428152 23.385617 15.347546 56.125275 28.946262 97.337909 40.387849 81.972966 22.745027 190.547801 35.288714 305.741379 35.288714 115.189486 0 223.76432-12.544711 305.738309-35.332716 41.256636-11.441587 73.973782-25.043373 97.316419-40.343847 29.132504-19.113313 43.927465-41.169655 43.927465-65.4742l0-564.609195c0-24.331151-14.794961-46.338375-43.927465-65.452711L914.341996 163.648151zM218.157113 168.586626c78.023004-21.642926 182.094268-33.590026 293.12913-33.590026 111.00928 0 215.171618 11.9471 293.149597 33.590026 84.446297 23.479761 106.778932 49.829895 106.778932 60.510142 0 10.685363-22.331611 37.034475-106.778932 60.514235-78.020958 21.642926-182.139294 33.587979-293.149597 33.587979-111.034862 0-215.174688-11.94403-293.12913-33.587979-84.448344-23.479761-106.804515-49.828872-106.804515-60.514235C111.353622 218.416522 133.662721 192.06741 218.157113 168.586626zM804.435841 854.220199c-78.020958 21.642926-182.139294 33.590026-293.149597 33.590026-111.034862 0-215.174688-11.9471-293.12913-33.590026-84.448344-23.476691-106.804515-49.850361-106.804515-60.511165L111.352599 672.956855c23.160489 14.56574 54.771441 27.476795 94.192266 38.412868 81.972966 22.789029 190.547801 35.287691 305.741379 35.287691 115.189486 0 223.76432-12.589736 305.738309-35.335786 39.417755-10.979052 71.080895-23.846104 94.189196-38.364773l0 120.706129c0 10.706853-22.331611 37.032428-106.778932 60.513212L804.434817 854.220199zM804.435841 666.017816c-78.020958 21.642926-182.139294 33.590026-293.149597 33.590026-111.034862 0-215.174688-11.9471-293.12913-33.590026-84.448344-23.479761-106.804515-49.851385-106.804515-60.511165L111.352599 484.775962c23.160489 14.544251 54.771441 27.432793 94.192266 38.390355 81.972966 22.790052 190.547801 35.289738 305.741379 35.289738 115.189486 0 223.76432-12.590759 305.738309-35.289738 39.417755-10.957563 71.080895-23.846104 94.189196-38.390355l0 120.730689C911.214772 616.166431 888.883161 642.538055 804.435841 666.017816zM804.435841 477.815433c-78.020958 21.641903-182.139294 33.590026-293.149597 33.590026-111.034862 0-215.174688-11.9471-293.12913-33.590026-84.448344-23.480784-106.804515-49.829895-106.804515-60.512189l0-120.729665c23.160489 14.544251 54.771441 27.432793 94.192266 38.391379 81.972966 22.76754 190.547801 35.289738 305.741379 35.289738 115.189486 0 223.76432-12.56927 305.738309-35.289738 39.417755-10.957563 71.080895-23.846104 94.189196-38.391379l0 120.729665C911.214772 427.985538 888.883161 454.334649 804.435841 477.815433z" p-id="9077"></path></svg>