<?xml version="1.0" standalone="no"?><!DOCTYPE svg PUBLIC "-//W3C//DTD SVG 1.1//EN" "http://www.w3.org/Graphics/SVG/1.1/DTD/svg11.dtd"><svg t="1655201568926" class="icon" viewBox="0 0 1024 1024" version="1.1" xmlns="http://www.w3.org/2000/svg" p-id="11156" xmlns:xlink="http://www.w3.org/1999/xlink" width="200" height="200"><defs><style type="text/css">@font-face { font-family: feedback-iconfont; src: url("//at.alicdn.com/t/font_1031158_u69w8yhxdu.woff2?t=1630033759944") format("woff2"), url("//at.alicdn.com/t/font_1031158_u69w8yhxdu.woff?t=1630033759944") format("woff"), url("//at.alicdn.com/t/font_1031158_u69w8yhxdu.ttf?t=1630033759944") format("truetype"); }
</style></defs><path d="M842.666667 285.866667l-187.733334-187.733334c-14.933333-14.933333-32-21.333333-53.333333-21.333333H234.666667C194.133333 74.666667 160 108.8 160 149.333333v725.333334c0 40.533333 34.133333 74.666667 74.666667 74.666666h554.666666c40.533333 0 74.666667-34.133333 74.666667-74.666666V337.066667c0-19.2-8.533333-38.4-21.333333-51.2z m-44.8 44.8H618.666667c-6.4 0-10.666667-4.266667-10.666667-10.666667V140.8l189.866667 189.866667z m-8.533334 554.666666H234.666667c-6.4 0-10.666667-4.266667-10.666667-10.666666V149.333333c0-6.4 4.266667-10.666667 10.666667-10.666666h309.333333V320c0 40.533333 34.133333 74.666667 74.666667 74.666667h181.333333V874.666667c0 6.4-4.266667 10.666667-10.666667 10.666666z" p-id="11157"></path><path d="M618.666667 586.666667h-74.666667V512c0-17.066667-14.933333-32-32-32s-32 14.933333-32 32v74.666667H405.333333c-17.066667 0-32 14.933333-32 32s14.933333 32 32 32h74.666667V725.333333c0 17.066667 14.933333 32 32 32s32-14.933333 32-32v-74.666666H618.666667c17.066667 0 32-14.933333 32-32s-14.933333-32-32-32z" p-id="11158"></path></svg>