<?xml version="1.0" standalone="no"?><!DOCTYPE svg PUBLIC "-//W3C//DTD SVG 1.1//EN" "http://www.w3.org/Graphics/SVG/1.1/DTD/svg11.dtd"><svg t="1655015999354" class="icon" viewBox="0 0 1024 1024" version="1.1" xmlns="http://www.w3.org/2000/svg" p-id="3039" xmlns:xlink="http://www.w3.org/1999/xlink" width="200" height="200"><defs><style type="text/css">@font-face { font-family: feedback-iconfont; src: url("//at.alicdn.com/t/font_1031158_u69w8yhxdu.woff2?t=1630033759944") format("woff2"), url("//at.alicdn.com/t/font_1031158_u69w8yhxdu.woff?t=1630033759944") format("woff"), url("//at.alicdn.com/t/font_1031158_u69w8yhxdu.ttf?t=1630033759944") format("truetype"); }
</style></defs><path d="M411.733333 885.333333H192c-6.4 0-10.666667-4.266667-10.666667-10.666666V149.333333c0-6.4 4.266667-10.666667 10.666667-10.666666h576c6.4 0 10.666667 4.266667 10.666667 10.666666v219.733334c0 17.066667 14.933333 32 32 32s32-14.933333 32-32V149.333333c0-40.533333-34.133333-74.666667-74.666667-74.666666H192C151.466667 74.666667 117.333333 108.8 117.333333 149.333333v725.333334c0 40.533333 34.133333 74.666667 74.666667 74.666666h219.733333c17.066667 0 32-14.933333 32-32s-14.933333-32-32-32z" p-id="3040"></path><path d="M704 458.666667c-134.4 0-245.333333 110.933333-245.333333 245.333333S569.6 949.333333 704 949.333333 949.333333 838.4 949.333333 704 838.4 458.666667 704 458.666667z m0 426.666666c-100.266667 0-181.333333-81.066667-181.333333-181.333333s81.066667-181.333333 181.333333-181.333333 181.333333 81.066667 181.333333 181.333333-81.066667 181.333333-181.333333 181.333333z" p-id="3041"></path><path d="M802.133333 716.8l-66.133333-29.866667V597.333333c0-17.066667-14.933333-32-32-32s-32 14.933333-32 32v110.933334c0 12.8 8.533333 23.466667 19.2 29.866666l85.333333 38.4c4.266667 2.133333 8.533333 2.133333 12.8 2.133334 12.8 0 23.466667-6.4 29.866667-19.2 6.4-17.066667 0-34.133333-17.066667-42.666667zM693.333333 298.666667c0-17.066667-14.933333-32-32-32H298.666667c-17.066667 0-32 14.933333-32 32s14.933333 32 32 32h362.666666c17.066667 0 32-14.933333 32-32zM298.666667 437.333333c-17.066667 0-32 14.933333-32 32s14.933333 32 32 32h106.666666c17.066667 0 32-14.933333 32-32s-14.933333-32-32-32h-106.666666z" p-id="3042"></path></svg>