<?xml version="1.0" standalone="no"?><!DOCTYPE svg PUBLIC "-//W3C//DTD SVG 1.1//EN" "http://www.w3.org/Graphics/SVG/1.1/DTD/svg11.dtd"><svg t="1655106851629" class="icon" viewBox="0 0 1024 1024" version="1.1" xmlns="http://www.w3.org/2000/svg" p-id="7804" xmlns:xlink="http://www.w3.org/1999/xlink" width="200" height="200"><defs><style type="text/css">@font-face { font-family: feedback-iconfont; src: url("//at.alicdn.com/t/font_1031158_u69w8yhxdu.woff2?t=1630033759944") format("woff2"), url("//at.alicdn.com/t/font_1031158_u69w8yhxdu.woff?t=1630033759944") format("woff"), url("//at.alicdn.com/t/font_1031158_u69w8yhxdu.ttf?t=1630033759944") format("truetype"); }
</style></defs><path d="M819.2 96H204.8c-59.733333 0-108.8 49.066667-108.8 108.8v616.533333c0 59.733333 49.066667 108.8 108.8 108.8h616.533333c59.733333 0 108.8-49.066667 108.8-108.8V204.8c-2.133333-59.733333-51.2-108.8-110.933333-108.8z m44.8 723.2c0 23.466667-19.2 44.8-44.8 44.8H204.8c-23.466667 0-44.8-19.2-44.8-44.8V204.8c0-23.466667 19.2-44.8 44.8-44.8h616.533333c23.466667 0 44.8 19.2 44.8 44.8v614.4z" p-id="7805"></path><path d="M298.666667 522.666667h128c29.866667 0 53.333333-23.466667 53.333333-53.333334v-128c0-29.866667-23.466667-53.333333-53.333333-53.333333h-128c-29.866667 0-53.333333 23.466667-53.333334 53.333333v128c0 29.866667 23.466667 53.333333 53.333334 53.333334z m10.666666-170.666667h106.666667v106.666667h-106.666667v-106.666667zM746.666667 437.333333h-170.666667c-17.066667 0-32 14.933333-32 32s14.933333 32 32 32h170.666667c17.066667 0 32-14.933333 32-32s-14.933333-32-32-32zM746.666667 629.333333H277.333333c-17.066667 0-32 14.933333-32 32s14.933333 32 32 32h469.333334c17.066667 0 32-14.933333 32-32s-14.933333-32-32-32z" p-id="7806"></path></svg>