<?xml version="1.0" standalone="no"?><!DOCTYPE svg PUBLIC "-//W3C//DTD SVG 1.1//EN" "http://www.w3.org/Graphics/SVG/1.1/DTD/svg11.dtd"><svg t="1711566546653" class="icon" viewBox="0 0 1024 1024" version="1.1" xmlns="http://www.w3.org/2000/svg" p-id="20500" xmlns:xlink="http://www.w3.org/1999/xlink" width="200" height="200"><path d="M979.30091 188.371816L835.506169 44.621874 828.158992 38.042695c-60.396607-53.158231-151.711516-50.27824-208.639335 6.579179L44.41109 619.544841l-6.579179 7.532776c-52.972631 60.428607-49.971041 151.577117 6.867179 208.383336l143.794741 143.858741 7.347177 6.860779c60.447807 52.959831 151.621917 49.958241 208.447335-6.860779l575.012567-575.217366 6.867179-7.340777c52.972631-60.422207 49.971041-151.577117-6.867179-208.383335z m-53.875028 162.060283l-575.486165 574.929367c-29.791905 29.759905-78.060551 29.759905-107.852457 0l-143.897141-143.756341c-29.759905-29.779105-29.759905-78.041351 0-107.814057l45.011057-44.710257 53.875028 53.862228a38.150278 38.150278 0 0 0 53.926228-1.337596 38.124678 38.124678 0 0 0 0.0512-52.524632l-53.977428-54.246227 89.926113-89.791714 90.015713 89.702114 1.907194 1.900794a38.150278 38.150278 0 0 0 53.945428-0.064 38.124678 38.124678 0 0 0-1.971193-55.699022l-89.919714-89.894114 89.919714-89.894113 53.971027 53.951828 1.907194 1.811194a38.150278 38.150278 0 0 0 53.945428-0.064 38.124678 38.124678 0 0 0-1.977593-55.699022l-53.875029-53.862229 89.830114-89.894113 90.015713 89.894113 1.907194 1.907194a38.150278 38.150278 0 0 0 53.811029-3.750388 38.124678 38.124678 0 0 0-1.843195-52.019034L629.055627 143.475959l45.004656-44.991857c29.791905-29.759905 78.060551-29.759905 107.852457 0l143.513142 143.845942c29.766305 29.779105 29.766305 78.041351 0 107.820456v0.281599z" fill="#333333" p-id="20501"></path></svg>