<?xml version="1.0" standalone="no"?><!DOCTYPE svg PUBLIC "-//W3C//DTD SVG 1.1//EN" "http://www.w3.org/Graphics/SVG/1.1/DTD/svg11.dtd"><svg t="1655107086935" class="icon" viewBox="0 0 1024 1024" version="1.1" xmlns="http://www.w3.org/2000/svg" p-id="2559" xmlns:xlink="http://www.w3.org/1999/xlink" width="200" height="200"><defs><style type="text/css">@font-face { font-family: feedback-iconfont; src: url("//at.alicdn.com/t/font_1031158_u69w8yhxdu.woff2?t=1630033759944") format("woff2"), url("//at.alicdn.com/t/font_1031158_u69w8yhxdu.woff?t=1630033759944") format("woff"), url("//at.alicdn.com/t/font_1031158_u69w8yhxdu.ttf?t=1630033759944") format("truetype"); }
</style></defs><path d="M947.2 640H76.8a51.264 51.264 0 0 1-51.2-51.2V435.2c0-28.224 22.976-51.2 51.2-51.2h870.4c28.224 0 51.2 22.976 51.2 51.2v153.6c0 28.224-22.976 51.2-51.2 51.2zM76.8 435.2v153.6h870.4V435.2H76.8zM947.2 947.2H76.8a51.264 51.264 0 0 1-51.2-51.2v-153.6c0-28.224 22.976-51.2 51.2-51.2h870.4c28.224 0 51.2 22.976 51.2 51.2V896c0 28.224-22.976 51.2-51.2 51.2zM76.8 742.4V896h870.4v-153.6H76.8zM947.2 332.8H76.8a51.264 51.264 0 0 1-51.2-51.2V128c0-28.224 22.976-51.2 51.2-51.2h870.4c28.224 0 51.2 22.976 51.2 51.2v153.6c0 28.224-22.976 51.2-51.2 51.2zM76.8 128v153.6h870.4V128H76.8z" p-id="2560"></path><path d="M908.8 204.8a38.4 38.4 0 1 1-76.864-0.064 38.4 38.4 0 0 1 76.864 0.064zM908.8 512a38.4 38.4 0 1 1-76.864-0.064A38.4 38.4 0 0 1 908.8 512zM908.8 819.2a38.4 38.4 0 1 1-76.864-0.064 38.4 38.4 0 0 1 76.864 0.064zM128 172.8h512v64H128v-64zM128 480h512v64H128v-64zM128 787.2h512v64H128v-64z" p-id="2561"></path></svg>